EBGaramond-InitialsF2.sfdir
StartChar: dollar
Encoding: 36 36 31
Width: 1000
Flags: H
LayerCount: 2
Fore
SplineSet
511 540 m 0
 454 535 413 482 413 430 c 0
 413 389 446 353 484 324 c 0
 488 321 493 322 493 326 c 2
 518 532 l 2
 518 537 516 540 511 540 c 0
544 280 m 0
 595 244 694 186 694 84 c 0
 694 4 638 -105 489 -105 c 0
 486 -105 481 -106 480 -111 c 2
 471 -187 l 2
 469 -199 457 -202 446 -202 c 0
 437 -202 428 -196 430 -187 c 2
 440 -108 l 2
 440 -105 437 -101 434 -101 c 0
 398 -95 375 -85 351 -79 c 0
 337 -76 339 -72 337 -67 c 0
 326 -44 308 35 306 71 c 0
 306 79 315 87 326 87 c 0
 335 87 366 -25 438 -61 c 0
 441 -62 446 -62 446 -59 c 2
 479 210 l 2
 479 213 479 218 467 227 c 0
 398 275 336 330 336 410 c 0
 336 468 390 564 513 572 c 0
 519 573 522 575 523 578 c 2
 527 604 l 2
 528 616 542 621 556 621 c 0
 564 621 570 612 569 604 c 2
 565 578 l 2
 564 575 566 572 571 571 c 0
 611 568 635 560 650 557 c 0
 660 554 666 545 668 535 c 0
 674 501 682 463 682 428 c 0
 682 419 677 403 672 403 c 0
 667 403 650 413 646 428 c 0
 630 488 596 518 564 531 c 0
 561 532 559 528 559 526 c 2
 531 299 l 2
 529 284 532 289 544 280 c 0
516 183 m 2
 487 -61 l 2
 486 -70 490 -71 495 -71 c 0
 569 -66 604 -33 604 61 c 0
 604 111 545 171 520 188 c 0
 517 190 517 188 516 183 c 2
EndSplineSet
EndChar
StartChar: C
Encoding: 67 67 6
Width: 1000
Flags: H
LayerCount: 2
Fore
SplineSet
484.349609375 -172.8203125 m 0
 753.120117188 -172.8203125 817.0703125 54.599609375 848.669921875 105.780273438 c 1
 838.25 54.4404296875 814.059570312 -91.259765625 806.709960938 -121.01953125 c 0
 804.280273438 -130.849609375 801.610351562 -141.139648438 786.91015625 -148.51953125 c 0
 575.759765625 -254.58984375 75.1396484375 -295.200195312 75.1396484375 225.540039062 c 0
 75.1396484375 441.740234375 281.900390625 611.740234375 463.419921875 625.040039062 c 0
 592.650390625 634.509765625 715.73046875 597.049804688 733.3203125 592.4296875 c 0
 747.009765625 588.830078125 752.780273438 581.150390625 752.0703125 565.73046875 c 0
 750.700195312 535.98046875 753.379882812 505.1796875 755.200195312 475.379882812 c 0
 756.509765625 453.83984375 757.280273438 432.259765625 759.370117188 410.700195312 c 1
 749.990234375 414.799804688 743.190429688 419.959960938 742.690429688 426.099609375 c 0
 739.01953125 471.3203125 708.459960938 564.150390625 523.870117188 582.16015625 c 0
 313.01953125 602.73046875 203.0703125 445.629882812 203.0703125 225.530273438 c 0
 203.0703125 -12.3203125 312.73046875 -172.8203125 484.349609375 -172.8203125 c 0
EndSplineSet
EndChar
StartChar: F
Encoding: 70 70 9
Width: 1032
Flags: HW
LayerCount: 2
Fore
SplineSet
749 628 m 0
 764 628 775.611 624.878 777 617 c 0
 780.756 595.699 787 516 787 490 c 0
 787 481 784 471 781 471 c 0
 773 471 766.994 491.999 765 499 c 0
 740.618 584.595 633 595 556 595 c 2
 349 595 l 2
 339 595 342 592 342 581 c 2
 342 277 l 2
 342 270 343 264 350 264 c 2
 559 264 l 2
 621 264 645.5 278 680 326 c 0
 683.502 330.872 687 350 694 350 c 0
 695.867 350 700 347 700 337 c 0
 700 322 693 279.727 693 252 c 0
 693 227 697 161 697 161 c 1
 697 161 698 150 691 150 c 0
 685 150 679.044 167.623 667 181 c 0
 642.242 208.496 593 238 535 238 c 2
 358 238 l 2
 334 238 342 236 342 231 c 2
 342 0 l 2
 342 -92.8336 375.64 -150.232 407.5 -167 c 0
 426.5 -177 454 -176 454 -186 c 0
 454 -192 443 -191 435 -191 c 2
 164 -191 l 2
 152 -191 143 -192 143 -186 c 0
 143 -176 168.406 -178.386 183.5 -170 c 0
 228.5 -145 243.916 -82.9697 242 -22 c 1
 242 528 l 2
 242 553.354 209.83 599.963 177 610 c 0
 162.655 614.386 145 619 145 623 c 0
 145 629 154.473 630 161 630 c 0
 170.016 630 218 624 282 624 c 0
 416 624 721.88 628 749 628 c 0
EndSplineSet
EndChar

StartChar: G
Encoding: 71 71 1
Width: 1000
VWidth: 0
Flags: HMW
LayerCount: 2
Fore
SplineSet
867 173 m 2
 872 173 872 162 867 161 c 0
 824 155 795 153 795 86 c 2
 796 -72 l 2
 796 -90 798 -105 811 -105 c 0
 820 -105 837 -101 837 -104 c 0
 837 -131 713 -199 526 -199 c 0
 274 -199 96 -6 96 213 c 0
 96 444 307 613 533 613 c 0
 649 613 728.158 575.78 762 560 c 0
 771.063 555.773 774.303 553.976 775 544 c 0
 776.825 517.894 798 420 798 402 c 0
 798 385 789.941 379.291 787 394 c 0
 783 414 740.991 474.998 685 534 c 0
 660.907 559.388 611.872 576 521 576 c 0
 329 576 214.564 400.711 216 217 c 0
 217 89 312 -170 528 -170 c 0
 604 -170 692 -156 692 -124 c 2
 692 39 l 2
 692 160 638 155 584 161 c 0
 578 162 579 173 584 173 c 2
 727 168 l 1
 867 173 l 2
EndSplineSet
Validated: 33
EndChar
StartChar: H
Encoding: 72 72 10
Width: 1000
Flags: H
LayerCount: 2
Fore
SplineSet
69.7099609375 620.76953125 m 2
 69.7197265625 620.76953125 l 2
 72.5498046875 620.759765625 76.240234375 620.709960938 81.009765625 620.690429688 c 0
 89.599609375 620.6796875 144.240234375 619.110351562 212.419921875 619.110351562 c 0
 280.58984375 619.110351562 335.23046875 620.6796875 343.830078125 620.690429688 c 0
 348.599609375 620.709960938 352.280273438 620.759765625 355.110351562 620.76953125 c 0
 363.599609375 620.809570312 364.490234375 620.559570312 364.490234375 618.059570312 c 0
 364.490234375 613.450195312 364.870117188 609.330078125 362.73046875 609.330078125 c 0
 304.1796875 609.530273438 271.290039062 559.23046875 271.290039062 527.330078125 c 0
 271.290039062 471.169921875 270.700195312 406.120117188 270.490234375 293.450195312 c 0
 270.379882812 232.530273438 270.91015625 228.509765625 274.610351562 224.799804688 c 0
 278.330078125 221.08984375 281.709960938 221.66015625 491.969726562 221.66015625 c 0
 702.23046875 221.66015625 705.620117188 221.08984375 709.330078125 224.799804688 c 0
 713.049804688 228.509765625 713.549804688 232.530273438 713.450195312 293.450195312 c 0
 713.240234375 406.120117188 712.66015625 471.169921875 712.66015625 527.33984375 c 0
 712.66015625 559.219726562 679.759765625 609.540039062 621.209960938 609.33984375 c 0
 619.0703125 609.33984375 619.450195312 613.450195312 619.450195312 618.0703125 c 0
 619.450195312 620.5703125 620.33984375 620.809570312 628.830078125 620.76953125 c 0
 631.66015625 620.759765625 635.349609375 620.709960938 640.120117188 620.690429688 c 0
 648.709960938 620.6796875 703.349609375 619.110351562 771.530273438 619.110351562 c 0
 839.700195312 619.110351562 894.33984375 620.6796875 902.940429688 620.690429688 c 0
 907.709960938 620.709960938 911.389648438 620.759765625 914.219726562 620.76953125 c 0
 922.709960938 620.809570312 923.599609375 620.559570312 923.599609375 618.059570312 c 0
 923.599609375 613.450195312 923.98046875 609.330078125 921.83984375 609.330078125 c 0
 863.290039062 609.530273438 830.389648438 559.23046875 830.389648438 527.330078125 c 0
 830.389648438 458.9296875 829.509765625 381.759765625 829.509765625 215.08984375 c 0
 829.509765625 48.4296875 830.389648438 -28.73046875 830.389648438 -97.1396484375 c 0
 830.389648438 -129.01953125 863.290039062 -179.3203125 921.83984375 -179.139648438 c 0
 923.98046875 -179.139648438 923.599609375 -183.25 923.599609375 -187.870117188 c 0
 923.599609375 -190.370117188 922.709960938 -190.58984375 914.23046875 -190.5703125 c 0
 911.389648438 -190.549804688 907.709960938 -190.509765625 902.9296875 -190.5 c 0
 894.330078125 -190.490234375 839.700195312 -188.9296875 771.530273438 -188.9296875 c 0
 703.349609375 -188.9296875 648.709960938 -190.490234375 640.110351562 -190.5 c 0
 635.33984375 -190.509765625 631.66015625 -190.549804688 628.830078125 -190.5703125 c 0
 620.33984375 -190.58984375 619.450195312 -190.360351562 619.450195312 -187.860351562 c 0
 619.450195312 -183.25 619.0703125 -179.129882812 621.209960938 -179.129882812 c 0
 679.759765625 -179.330078125 712.66015625 -129.030273438 712.66015625 -97.1298828125 c 0
 712.66015625 -40.330078125 713.549804688 27.8798828125 713.4296875 143.48046875 c 0
 713.400390625 165.580078125 711.919921875 168.740234375 709.330078125 171.33984375 c 0
 706.990234375 173.669921875 704.599609375 174.360351562 662.150390625 174.459960938 c 0
 620.66015625 174.549804688 579.0703125 174.48046875 491.969726562 174.48046875 c 0
 404.879882812 174.48046875 363.26953125 174.559570312 321.790039062 174.459960938 c 0
 279.330078125 174.360351562 276.950195312 173.669921875 274.620117188 171.33984375 c 0
 272.01953125 168.75 270.540039062 165.580078125 270.51953125 143.48046875 c 0
 270.389648438 27.8798828125 271.26953125 -40.33984375 271.26953125 -97.1396484375 c 0
 271.26953125 -129.01953125 304.169921875 -179.3203125 362.719726562 -179.139648438 c 0
 364.860351562 -179.139648438 364.48046875 -183.25 364.48046875 -187.870117188 c 0
 364.48046875 -190.370117188 363.599609375 -190.58984375 355.099609375 -190.5703125 c 0
 352.26953125 -190.549804688 348.58984375 -190.509765625 343.8203125 -190.5 c 0
 335.219726562 -190.490234375 280.580078125 -188.9296875 212.400390625 -188.9296875 c 0
 144.23046875 -188.9296875 89.599609375 -190.490234375 81 -190.5 c 0
 76.23046875 -190.509765625 72.5400390625 -190.549804688 69.7099609375 -190.5703125 c 0
 61.2197265625 -190.58984375 60.330078125 -190.360351562 60.330078125 -187.860351562 c 0
 60.330078125 -183.25 59.9501953125 -179.129882812 62.08984375 -179.129882812 c 0
 120.639648438 -179.330078125 153.540039062 -129.030273438 153.540039062 -97.1298828125 c 0
 153.540039062 -28.73046875 154.4296875 48.4296875 154.4296875 215.08984375 c 0
 154.4296875 381.759765625 153.540039062 458.9296875 153.540039062 527.33984375 c 0
 153.540039062 559.219726562 120.650390625 609.540039062 62.08984375 609.33984375 c 0
 59.9501953125 609.33984375 60.330078125 613.450195312 60.330078125 618.0703125 c 0
 60.330078125 620.5703125 61.2197265625 620.809570312 69.7099609375 620.76953125 c 2
EndSplineSet
EndChar
StartChar: I
Encoding: 73 73 11
Width: 1000
Flags: H
LayerCount: 2
Fore
SplineSet
359.966796875 622.05078125 m 0
 363.004882812 622.032226562 366.948242188 621.983398438 372.068359375 621.978515625 c 0
 381.293945312 621.965820312 431.904296875 620.3828125 504.48046875 620.3828125 c 0
 577.056640625 620.3828125 627.66796875 621.96875 636.89453125 621.978515625 c 0
 642.013671875 621.997070312 645.958007812 622.036132812 648.99609375 622.05078125 c 0
 658.110351562 622.088867188 659.060546875 621.836914062 659.060546875 619.330078125 c 0
 659.060546875 614.703125 659.483398438 610.578125 657.18359375 610.578125 c 0
 594.348632812 610.774414062 561.673828125 560.28515625 561.673828125 528.283203125 c 0
 561.673828125 459.631835938 560.669921875 382.193359375 560.669921875 214.935546875 c 0
 560.669921875 47.677734375 561.673828125 -29.7587890625 561.673828125 -98.41015625 c 0
 561.673828125 -130.412109375 594.348632812 -180.901367188 657.18359375 -180.705078125 c 0
 659.482421875 -180.705078125 659.060546875 -184.830078125 659.060546875 -189.45703125 c 0
 659.060546875 -191.962890625 658.110351562 -192.215820312 648.99609375 -192.177734375 c 0
 645.958007812 -192.16015625 642.013671875 -192.125 636.89453125 -192.10546875 c 0
 627.66796875 -192.095703125 577.056640625 -190.51953125 504.48046875 -190.51953125 c 0
 431.904296875 -190.51953125 381.293945312 -192.094726562 372.068359375 -192.10546875 c 0
 366.948242188 -192.10546875 363.004882812 -192.159179688 359.966796875 -192.177734375 c 0
 350.852539062 -192.213867188 349.90234375 -191.962890625 349.90234375 -189.45703125 c 0
 349.90234375 -184.830078125 349.477539062 -180.705078125 351.77734375 -180.705078125 c 0
 414.612304688 -180.901367188 447.2890625 -130.412109375 447.2890625 -98.41015625 c 0
 447.2890625 -29.7587890625 448.29296875 47.677734375 448.29296875 214.935546875 c 0
 448.29296875 382.193359375 447.2890625 459.631835938 447.2890625 528.283203125 c 0
 447.2890625 560.28515625 414.612304688 610.774414062 351.77734375 610.578125 c 0
 349.478515625 610.578125 349.90234375 614.703125 349.90234375 619.330078125 c 0
 349.90234375 621.8359375 350.852539062 622.088867188 359.966796875 622.05078125 c 0
EndSplineSet
EndChar
StartChar: J
Encoding: 74 74 12
Width: 1000
Flags: H
LayerCount: 2
Fore
SplineSet
470.498046875 608.798828125 m 2
 768.091796875 608.798828125 l 2
 772.892578125 608.798828125 773.84375 600.174804688 768.091796875 599.2109375 c 0
 688.075195312 585.799804688 682.091796875 518.682617188 682.091796875 439.1015625 c 0
 682.091796875 331.892578125 682.27734375 225.125976562 682.20703125 117.775390625 c 0
 682.090820312 108.376953125 682.044921875 96.8759765625 682.091796875 86.71875 c 1
 681.859375 86.703125 l 1
 678.333984375 -88.634765625 644.424804688 -113.44921875 606.642578125 -150.20703125 c 0
 568.165039062 -188.071289062 515.400390625 -214.29296875 431.30078125 -214.29296875 c 0
 338.620117188 -214.29296875 284.44140625 -193.901367188 284.44140625 -173.5078125 c 0
 284.44140625 -147.301757812 310.116210938 -120.099609375 335.767578125 -120.099609375 c 0
 372.853515625 -120.099609375 389.948242188 -127.87109375 407.064453125 -145.341796875 c 0
 428.44921875 -167.677734375 449.833007812 -173.5078125 474.0703125 -173.5078125 c 0
 541.076171875 -173.5078125 568.166015625 -114.286132812 568.166015625 -20.09375 c 0
 568.166015625 132.908203125 567.794921875 285.91015625 568.00390625 439.1015625 c 0
 568.00390625 518.682617188 570.90234375 581.9609375 470.498046875 599.2109375 c 0
 464.74609375 600.174804688 462.821289062 608.798828125 470.498046875 608.798828125 c 2
EndSplineSet
EndChar
StartChar: K
Encoding: 75 75 13
Width: 1000
Flags: H
LayerCount: 2
Fore
SplineSet
583.75390625 603.03125 m 2
 583.767578125 603.03125 l 2
 586.748046875 603.016601562 590.5859375 602.9609375 595.59765625 602.9609375 c 0
 604.627929688 602.947265625 669.607421875 601.392578125 740.650390625 601.392578125 c 0
 811.678710938 601.392578125 864.802734375 602.947265625 873.833984375 602.9609375 c 0
 878.836914062 602.974609375 882.708007812 603.016601562 885.67578125 603.03125 c 0
 894.592773438 603.07421875 895.52734375 602.833984375 895.52734375 600.375 c 0
 895.52734375 595.838867188 895.908203125 592.150390625 893.689453125 591.810546875 c 0
 789.874023438 575.8828125 719.77734375 522.774414062 649.28515625 464.90234375 c 0
 574.327148438 400.1484375 517.360351562 344.282226562 440.296875 260.025390625 c 0
 434.53125 253.721679688 438.149414062 247.010742188 446.33203125 238.291015625 c 2
 675.259765625 -5.787109375 l 1
 692.2890625 -23.947265625 l 2
 776.559570312 -113.815429688 814.817382812 -172.223632812 909.34765625 -182.78125 c 0
 911.609375 -182.78125 911.19921875 -186.823242188 911.19921875 -191.345703125 c 0
 911.19921875 -193.8046875 910.266601562 -194.043945312 901.349609375 -194.001953125 c 0
 898.368164062 -193.98828125 894.508789062 -193.946289062 889.505859375 -193.931640625 c 0
 880.474609375 -193.931640625 827.3515625 -192.376953125 756.30859375 -192.376953125 c 0
 685.280273438 -192.376953125 606.23828125 -193.91796875 597.20703125 -193.931640625 c 0
 592.204101562 -193.931640625 588.361328125 -193.98828125 585.37890625 -194.001953125 c 0
 576.475585938 -194.043945312 575.529296875 -193.8046875 575.529296875 -191.345703125 c 0
 575.529296875 -186.823242188 575.189453125 -183.361328125 577.365234375 -182.78125 c 0
 663.85546875 -159.603515625 667.500976562 -149.215820312 621.599609375 -98.580078125 c 2
 614.619140625 -90.87890625 l 2
 614.4921875 -90.72265625 614.293945312 -90.5107421875 614.15234375 -90.35546875 c 0
 609.079101562 -84.8583984375 598.154296875 -72.74609375 598.154296875 -72.74609375 c 1
 598.197265625 -72.732421875 l 1
 367.83984375 181.53515625 l 2
 358.66796875 191.654296875 346.10546875 202.0546875 340.0703125 202.0546875 c 0
 334.036132812 202.0546875 335.23828125 185.154296875 335.23828125 176.703125 c 0
 335.23828125 159.13671875 335.010742188 142.489257812 334.7421875 126.052734375 c 1
 335.15234375 126.052734375 l 1
 335.22265625 57.46875 335.22265625 -11.1162109375 335.22265625 -79.62890625 c 0
 335.237304688 -110.959960938 349.750976562 -182.8515625 438.205078125 -182.8515625 c 0
 440.452148438 -182.8515625 440.04296875 -186.879882812 440.04296875 -191.416015625 c 0
 440.04296875 -193.861328125 439.109375 -194.115234375 430.19140625 -194.072265625 c 0
 427.223632812 -194.057617188 423.3515625 -194.015625 418.349609375 -194.001953125 c 0
 409.319335938 -193.98828125 356.1953125 -192.43359375 285.166015625 -192.43359375 c 0
 214.123046875 -192.43359375 149.143554688 -193.98828125 140.11328125 -194.001953125 c 0
 135.095703125 -194.001953125 131.250976562 -194.057617188 128.26953125 -194.072265625 c 0
 119.366210938 -194.115234375 118.419921875 -193.861328125 118.419921875 -191.416015625 c 0
 118.419921875 -186.879882812 118.008789062 -182.8515625 120.255859375 -182.8515625 c 0
 222.828125 -182.8515625 238.62890625 -110.959960938 238.62890625 -79.62890625 c 0
 238.727539062 116.724609375 238.557617188 313.122070312 238.62890625 509.490234375 c 0
 238.62890625 540.806640625 222.828125 590.04296875 120.255859375 590.04296875 c 0
 118.008789062 590.04296875 118.419921875 594.084960938 118.419921875 598.607421875 c 0
 118.419921875 601.06640625 119.3515625 601.307617188 128.26953125 601.265625 c 0
 131.250976562 601.250976562 135.095703125 601.208984375 140.11328125 601.208984375 c 0
 149.143554688 601.1953125 214.123046875 599.638671875 285.166015625 599.638671875 c 0
 356.208984375 599.638671875 409.319335938 601.1953125 418.349609375 601.208984375 c 0
 423.3671875 601.22265625 427.223632812 601.250976562 430.19140625 601.265625 c 0
 439.123046875 601.307617188 440.056640625 601.06640625 440.056640625 598.607421875 c 0
 440.056640625 594.084960938 440.465820312 590.04296875 438.205078125 590.04296875 c 0
 349.750976562 590.04296875 335.23828125 540.806640625 335.23828125 509.490234375 c 2
 335.23828125 251.560546875 l 2
 335.23828125 245.526367188 335.237304688 228.625 341.271484375 228.625 c 0
 349.72265625 228.625 364.901367188 241.188476562 373.888671875 250.359375 c 2
 598.25390625 479.21875 l 1
 598.25390625 479.21875 610.350585938 491.654296875 615.396484375 496.69921875 c 0
 649.765625 531.069335938 669.029296875 566.810546875 575.755859375 591.810546875 c 0
 573.579101562 592.389648438 573.91796875 595.838867188 573.91796875 600.375 c 0
 573.91796875 602.818359375 574.850585938 603.073242188 583.75390625 603.03125 c 2
EndSplineSet
EndChar
StartChar: L
Encoding: 76 76 14
Width: 1000
Flags: H
LayerCount: 2
Fore
SplineSet
129.200195312 603.299804688 m 1
 141.200195312 603.299804688 l 2
 150.299804688 603.299804688 222.299804688 601.299804688 294.599609375 601.299804688 c 0
 366.799804688 601.299804688 424.799804688 603.299804688 433.799804688 603.299804688 c 2
 445.799804688 603.299804688 l 2
 454.799804688 603.400390625 455.799804688 603.099609375 455.799804688 600.099609375 c 0
 455.799804688 594.700195312 456.200195312 589.900390625 453.900390625 589.900390625 c 0
 394 589.900390625 347.200195312 564.200195312 347.200195312 487.900390625 c 0
 347.200195312 295.200195312 346.200195312 95.5 346.599609375 -110.799804688 c 0
 346.700195312 -153.299804688 346.599609375 -159.900390625 401.400390625 -159.900390625 c 0
 425.200195312 -159.900390625 651.299804688 -160.400390625 748.5 -133.799804688 c 0
 807 -117.799804688 880 0.5 903.799804688 36.599609375 c 1
 880.200195312 -30.400390625 833.799804688 -165.200195312 820.5 -188.700195312 c 0
 814.099609375 -199.900390625 817.5 -204.700195312 779.5 -202 c 0
 647 -192.200195312 502.700195312 -199 473.200195312 -199 c 2
 146.200195312 -199 l 2
 140.5 -199 110.900390625 -197.599609375 122.200195312 -191 c 0
 161.299804688 -167.900390625 242.700195312 -131.700195312 242.700195312 -58.2998046875 c 0
 242.599609375 142.200195312 241.900390625 324.400390625 241.900390625 507.200195312 c 0
 241.900390625 572.599609375 178 589.799804688 121.200195312 589.799804688 c 0
 118.900390625 589.799804688 119.200195312 594.700195312 119.200195312 600.200195312 c 0
 119.200195312 603.099609375 120.200195312 603.299804688 129.200195312 603.299804688 c 1
EndSplineSet
EndChar

StartChar: N
Encoding: 78 78 8
Width: 986
Flags: HW
LayerCount: 2
Fore
SplineSet
752.5 7.5 m 0
 759.5 7.5 759 13 759 25 c 2
 759 25 746.5 406.774 746.5 496.5 c 0
 746.5 552.5 743 562 718 576 c 0
 704 584 688 591 683 591 c 0
 673 591 666 595 666 599 c 0
 666 610 714 606 757 606 c 0
 798 606 834 607 837 609 c 0
 840.685 611.456 862 606.97 862 598 c 0
 862 584 823.648 582.213 812 579 c 0
 797.5 575 798 539.5 798 518.5 c 0
 798 397.5 796 -21 802 -114 c 0
 804 -139 804 -162 804 -177 c 0
 804 -189 804 -197 803 -197 c 0
 795 -197 771.184 -155.33 764 -147 c 0
 695 -67 455.5 217 253 431 c 0
 244.985 439.471 235 444 235 455 c 0
 235 465 225 443.5 225 430.5 c 0
 225 378.68 227 -21.616 227 -51 c 0
 227 -102 253 -144.5 292 -153 c 0
 308.867 -156.676 326.5 -157.5 326.5 -162.5 c 0
 326.5 -167.5 318 -173 312 -173 c 0
 303 -173 279.5 -171 267.5 -171 c 0
 216.976 -169.396 253.527 -166.5 211 -166.5 c 0
 206 -166.5 118.5 -175.5 113.5 -175.5 c 0
 107.5 -175.5 107 -168 107 -166 c 0
 107 -163.424 124.062 -154.743 132 -152.5 c 0
 178 -139.5 186 -97.7723 186 -27.5 c 0
 186 79.188 191.103 275.134 188.5 423.5 c 0
 188.5 458.5 186.976 469.743 185 472 c 1
 181.25 523.962 139.486 542.349 97 572.5 c 0
 75.4775 587.773 54.8534 573.124 30 582 c 0
 22.4375 584.701 20 589 20 600 c 0
 20 604 23 606 35 606 c 0
 79.5334 606 183.658 604 210 604 c 0
 234 604 239 601 256 582 c 0
 290.172 540.993 423.309 384.593 531 259 c 0
 575.802 206.751 598.207 195.704 647 126 c 0
 660 108 715 43 726 33 c 0
 728 31 750.5 7.5 752.5 7.5 c 0
EndSplineSet
EndChar
StartChar: O
Encoding: 79 79 17
Width: 1000
Flags: H
LayerCount: 2
Fore
SplineSet
540.169921875 -160.759765625 m 0
 711.900390625 -160.759765625 807.75 -32.9599609375 807.75 206.66015625 c 0
 807.75 437.299804688 682.940429688 574.080078125 510.209960938 574.080078125 c 0
 320.509765625 574.080078125 219.669921875 435.299804688 219.669921875 274.549804688 c 0
 219.669921875 190.6796875 282.5703125 -160.759765625 540.169921875 -160.759765625 c 0
514.200195312 610.01953125 m 1
 514.200195312 610.030273438 l 1
 694.91015625 610.030273438 912.580078125 448.280273438 912.580078125 215.650390625 c 0
 912.580078125 -97.8603515625 680.940429688 -203.700195312 526.1796875 -203.700195312 c 0
 299.540039062 -203.700195312 116.8203125 -5.009765625 116.8203125 208.66015625 c 0
 116.8203125 459.259765625 338.469726562 610.01953125 514.200195312 610.01953125 c 1
EndSplineSet
EndChar
StartChar: Q
Encoding: 81 81 19
Width: 1000
Flags: H
LayerCount: 2
Fore
SplineSet
388.8203125 606.0703125 m 0
 295.120117188 606.0703125 190.3203125 506.3203125 190.3203125 370.299804688 c 0
 190.3203125 199.009765625 302.169921875 -23.66015625 455.3203125 -23.66015625 c 0
 586.299804688 -23.66015625 672.959960938 91.2001953125 672.959960938 217.150390625 c 0
 672.959960938 312.870117188 659.860351562 606.0703125 388.8203125 606.0703125 c 0
806.959960938 -255.41015625 m 0
 687.059570312 -255.41015625 578.240234375 -185.879882812 467.41015625 -96.2099609375 c 0
 439.190429688 -73.0302734375 405.950195312 -54.900390625 384.790039062 -51.8798828125 c 0
 251.790039062 -32.740234375 93.6103515625 112.360351562 93.6103515625 311.860351562 c 0
 93.6103515625 495.240234375 248.76953125 647.379882812 414.009765625 647.379882812 c 0
 570.1796875 647.379882812 768.6796875 520.4296875 768.6796875 308.83984375 c 0
 768.6796875 168.780273438 679 34.76953125 583.280273438 -19.6298828125 c 0
 560.110351562 -32.73046875 549.01953125 -41.7998046875 549.01953125 -52.8798828125 c 0
 549.01953125 -79.080078125 705.200195312 -210.0703125 867.419921875 -210.0703125 c 0
 923.83984375 -210.0703125 973.209960938 -158.6796875 985.299804688 -158.6796875 c 0
 988.330078125 -158.6796875 990.33984375 -165.73046875 990.33984375 -169.759765625 c 0
 990.33984375 -184.879882812 893.620117188 -255.41015625 806.959960938 -255.41015625 c 0
EndSplineSet
EndChar
StartChar: R
Encoding: 82 82 20
Width: 1000
Flags: H
LayerCount: 2
Fore
SplineSet
390.900390625 600.630859375 m 0
 418.584960938 600.583984375 442.888671875 600.182617188 461.587890625 599.212890625 c 0
 778.91796875 582.752929688 719.061523438 235.58203125 517.37890625 206.048828125 c 1
 640.96875 133.275390625 712.690429688 -150.681640625 902.18359375 -194.078125 c 1
 783.646484375 -194.078125 l 1
 609.586914062 -199.306640625 526.8515625 112.244140625 385.62890625 195.119140625 c 1
 338.7734375 196.44921875 l 1
 338.7734375 -65.62890625 l 2
 338.7734375 -153.537109375 387.483398438 -185.94921875 477.10546875 -185.94921875 c 0
 481.999023438 -185.94921875 485.002929688 -195.490234375 477.10546875 -195.490234375 c 2
 109.16015625 -195.490234375 l 2
 100.172851562 -195.490234375 102.692382812 -184.66796875 109.634765625 -184.66796875 c 0
 199.170898438 -184.861328125 227.203125 -142.692382812 227.203125 -65.62890625 c 2
 227.203125 485.619140625 l 2
 227.572265625 582.387695312 141.271484375 585.806640625 111.984375 585.806640625 c 0
 103.870117188 585.806640625 99.2626953125 597.3359375 110.572265625 597.3359375 c 0
 194.375976562 597.733398438 307.84765625 600.772460938 390.900390625 600.630859375 c 0
369.66015625 581.75390625 m 0
 357.748046875 581.745117188 346.098632812 581.69140625 335.951171875 581.69140625 c 1
 338.5390625 209.390625 l 1
 386.688476562 204.998046875 446.41796875 202.456054688 474.046875 209.859375 c 0
 559.795898438 232.8359375 683.235351562 460.92578125 450.560546875 577.84375 c 0
 443.502929688 581.389648438 405.397460938 581.780273438 369.66015625 581.75390625 c 0
EndSplineSet
EndChar
StartChar: S
Encoding: 83 83 21
Width: 1000
Flags: H
LayerCount: 2
Fore
SplineSet
525.209960938 633.599609375 m 0
 634.389648438 633.4296875 694.759765625 583.8203125 712.259765625 575.459960938 c 0
 725.98046875 568.919921875 729.16015625 564.150390625 730.66015625 551.400390625 c 0
 731.639648438 543.190429688 748.830078125 418.530273438 740.5 420.9296875 c 0
 731.950195312 423.379882812 729.540039062 430.83984375 727.48046875 436.799804688 c 0
 722.857421875 450.0703125 717.17578125 463.099609375 710.700195312 475.379882812 c 0
 677.389648438 539.370117188 606.240234375 596.110351562 530.059570312 598.370117188 c 0
 460.41015625 600.440429688 398.990234375 531.530273438 397.940429688 462.139648438 c 0
 396.25 350.450195312 486.1796875 327.360351562 570.360351562 289.330078125 c 0
 671.330078125 243.719726562 806.259765625 161.740234375 806.259765625 3.51953125 c 0
 806.259765625 -151.91015625 670.509765625 -238.690429688 517.450195312 -227.5703125 c 0
 422.040039062 -220.629882812 327.3203125 -195.330078125 314.919921875 -191.509765625 c 0
 288.559570312 -183.370117188 295.740234375 -181.860351562 291.120117188 -152.509765625 c 0
 282.1796875 -95.7099609375 258.919921875 -23.9697265625 263.73046875 -20.5703125 c 0
 265.33984375 -19.4296875 270.0703125 -25.8896484375 279.48046875 -43.0302734375 c 0
 292.419921875 -66.5595703125 311.059570312 -112.370117188 426.450195312 -154.280273438 c 0
 537.150390625 -194.509765625 688.099609375 -182.799804688 688.099609375 -25.6796875 c 0
 688.099609375 67.3095703125 584.629882812 122.639648438 529.700195312 154.360351562 c 0
 390.209960938 234.900390625 295.309570312 265.23046875 295.309570312 420.150390625 c 0
 295.309570312 506.139648438 392.950195312 633.799804688 525.209960938 633.599609375 c 0
EndSplineSet
EndChar
StartChar: U
Encoding: 85 85 22
Width: 1000
Flags: H
LayerCount: 2
Fore
SplineSet
81.5 605.620117188 m 0
 84.16015625 605.599609375 87.6103515625 605.549804688 92.08984375 605.549804688 c 0
 100.16015625 605.540039062 152.620117188 603.990234375 216.099609375 603.990234375 c 0
 279.580078125 603.990234375 314.1796875 605.540039062 322.240234375 605.549804688 c 0
 326.73046875 605.559570312 330.169921875 605.599609375 332.83984375 605.620117188 c 0
 340.799804688 605.66015625 341.639648438 605.41015625 341.639648438 602.940429688 c 0
 341.639648438 598.389648438 342 594.330078125 339.990234375 594.330078125 c 0
 285.030273438 594.530273438 265.919921875 532.58984375 265.919921875 501.129882812 c 0
 265.919921875 433.629882812 265.049804688 373.33984375 265.049804688 208.900390625 c 2
 265.049804688 132.799804688 l 2
 265.049804688 -62.8701171875 372.650390625 -150.919921875 521.849609375 -150.919921875 c 0
 689.389648438 -150.919921875 765.209960938 -23.73046875 765.209960938 167.040039062 c 0
 765.209960938 179.969726562 765.25 192.209960938 765.26953125 204.669921875 c 2
 765.26953125 206.1796875 l 2
 765.280273438 215.040039062 765.25 224.549804688 765.23046875 233.969726562 c 2
 765.23046875 234.240234375 l 2
 765.100585938 275.958007812 764.504882812 315.5390625 763.389648438 357.01953125 c 1
 763.559570312 357.209960938 l 1
 762.209960938 401.8203125 760.219726562 427.370117188 758.1796875 464.469726562 c 0
 755.450195312 514.370117188 732.040039062 594.540039062 677.080078125 594.33984375 c 0
 675.0703125 594.33984375 675.440429688 598.389648438 675.440429688 602.940429688 c 0
 675.440429688 605.41015625 676.26953125 605.650390625 684.240234375 605.610351562 c 0
 686.900390625 605.58984375 690.349609375 605.540039062 694.830078125 605.530273438 c 0
 702.900390625 605.530273438 747.169921875 603.969726562 810.650390625 603.969726562 c 0
 874.129882812 603.969726562 906.200195312 605.530273438 914.26953125 605.530273438 c 0
 918.75 605.549804688 922.190429688 605.58984375 924.849609375 605.610351562 c 0
 932.8203125 605.639648438 933.650390625 605.400390625 933.650390625 602.9296875 c 0
 933.650390625 598.389648438 934.009765625 594.330078125 932.009765625 594.330078125 c 0
 904.51953125 594.419921875 879.240234375 582.059570312 860.8203125 565.740234375 c 0
 826.940429688 535.719726562 825.990234375 442.33984375 825.709960938 426.209960938 c 0
 825.709960938 318.719726562 825.099609375 318.780273438 821.099609375 110.780273438 c 0
 817.450195312 -78.830078125 675.940429688 -212.059570312 496.169921875 -212.059570312 c 0
 277.26953125 -212.059570312 167.209960938 -88.5400390625 167.209960938 98.5595703125 c 2
 167.209960938 208.959960938 l 2
 167.209960938 373.419921875 166.330078125 449.549804688 166.330078125 517.049804688 c 0
 166.330078125 548.51953125 129.299804688 594.540039062 74.33984375 594.33984375 c 0
 72.330078125 594.33984375 72.7001953125 598.400390625 72.7001953125 602.950195312 c 0
 72.7001953125 605.41015625 73.5302734375 605.650390625 81.5 605.620117188 c 0
EndSplineSet
EndChar
StartChar: V
Encoding: 86 86 23
Width: 1000
Flags: H
LayerCount: 2
Fore
SplineSet
991.83203125 577.5859375 m 2
 998.873046875 577.708984375 996.076171875 567.1171875 991.001953125 566.81640625 c 0
 956.09765625 566.166015625 837.6015625 560.331054688 797.87890625 489.427734375 c 0
 758.15625 418.525390625 490.177734375 -159.264648438 489.530273438 -157.421875 c 0
 471.331054688 -105.610351562 152.633789062 499.899414062 130.873046875 524.455078125 c 0
 109.112304688 549.010742188 6.412109375 564.58203125 6.412109375 564.58203125 c 2
 0.9970703125 565.029296875 2.37890625 577.587890625 8.6611328125 577.587890625 c 0
 10.513671875 577.458007812 281.768554688 579.137695312 344.34765625 577.587890625 c 0
 348.809570312 577.587890625 348.809570312 564.791015625 343.556640625 564.317382812 c 0
 317.032226562 565.482421875 279.331054688 543.080078125 277.413085938 509.274414062 c 0
 273.94921875 448.216796875 523.41015625 -7.849609375 523.955078125 -6.6728515625 c 2
 523.955078125 -6.6728515625 741.572265625 481.135742188 742.20703125 483.612304688 c 0
 754.787109375 532.618164062 734.23828125 561.701171875 679.049804688 568.7109375 c 0
 670.748046875 569.764648438 678.875976562 577.294921875 679.17578125 577.586914062 c 0
 679.475585938 577.87890625 991.83203125 577.5859375 991.83203125 577.5859375 c 2
EndSplineSet
EndChar
StartChar: W
Encoding: 87 87 24
Width: 1000
Flags: H
LayerCount: 2
Fore
SplineSet
737.950195312 575.940429688 m 1
 737.940429688 575.940429688 l 1
 742.169921875 575.650390625 742.719726562 566.83984375 737.040039062 566.0703125 c 0
 665.169921875 556.389648438 658.169921875 541.259765625 637.370117188 488.809570312 c 2
 563.200195312 301.610351562 l 1
 685.5 -40.349609375 l 1
 823.83984375 442.809570312 l 2
 844.58984375 515.290039062 827.5 560.549804688 771 566.0703125 c 0
 765.98046875 567.049804688 765.98046875 575.889648438 771 575.889648438 c 2
 995.610351562 575.66015625 l 2
 1000.63964844 576.639648438 1001.70996094 565.83984375 995.610351562 565.83984375 c 0
 945.849609375 565.83984375 901.549804688 516.450195312 878.669921875 443.650390625 c 2
 667.530273438 -228.540039062 l 1
 513.629882812 187.01953125 l 1
 511.240234375 181.5 508.6796875 175.41015625 505.740234375 168.259765625 c 0
 456.66015625 36.3203125 414.540039062 -98.0498046875 361.360351562 -228.540039062 c 1
 107.51953125 468.969726562 l 2
 91.169921875 513.900390625 70.1298828125 557.33984375 4.0498046875 566.080078125 c 0
 -0.98046875 567.059570312 -0.98046875 575.900390625 4.0498046875 575.900390625 c 2
 262.41015625 575.900390625 l 2
 267.440429688 575.900390625 268.490234375 566.73046875 262.41015625 566.080078125 c 0
 219.75 561.620117188 181.740234375 521.669921875 208 451.299804688 c 2
 391.790039062 -41.1201171875 l 1
 415.73046875 15 462.219726562 144.5 495.259765625 236.639648438 c 1
 409.23046875 468.959960938 l 2
 392.879882812 513.889648438 365.780273438 557.330078125 299.700195312 566.0703125 c 0
 294.6796875 567.049804688 294.6796875 575.889648438 299.700195312 575.889648438 c 2
 528 575.889648438 l 2
 533.030273438 575.889648438 534.080078125 566.719726562 528 566.0703125 c 0
 485.330078125 561.610351562 484.400390625 522 509.700195312 451.290039062 c 2
 549 341.330078125 l 1
 574.98046875 421.580078125 583.299804688 446.1796875 600.059570312 508.509765625 c 0
 606.6796875 533.169921875 579.549804688 564.110351562 559.459960938 566.0703125 c 0
 554.4296875 567.049804688 554.4296875 575.889648438 559.459960938 575.889648438 c 2
 737.059570312 575.889648438 l 2
 737.276367188 575.927734375 737.4921875 575.946289062 737.71875 575.946289062 c 0
 737.796875 575.946289062 737.874023438 575.944335938 737.950195312 575.940429688 c 1
EndSplineSet
EndChar
StartChar: X
Encoding: 88 88 25
Width: 1000
Flags: H
LayerCount: 2
Fore
SplineSet
309.219726562 599.5 m 0
 367.5703125 599.580078125 421.690429688 599.419921875 445.740234375 598.6796875 c 0
 450.400390625 598.6796875 450.400390625 582.48046875 445.009765625 581.870117188 c 0
 418.030273438 579.370117188 357.91015625 550.219726562 354.9296875 525.5703125 c 0
 352.540039062 505.73046875 352.969726562 494.58984375 434.110351562 381.240234375 c 2
 515.669921875 264.9296875 l 1
 683.990234375 475.73046875 l 2
 714.809570312 514.330078125 685.91015625 568.370117188 614.240234375 589.169921875 c 0
 605.349609375 590.299804688 613.990234375 598.370117188 614.379882812 598.669921875 c 0
 614.700195312 598.990234375 921.719726562 598.669921875 921.780273438 598.669921875 c 2
 921.799804688 598.669921875 l 2
 929.23046875 598.76953125 926.240234375 587.469726562 920.830078125 587.150390625 c 0
 836.370117188 586.059570312 773.240234375 507.400390625 740.129882812 464.6796875 c 0
 730.599609375 452.379882812 574.349609375 268.450195312 540.009765625 230.209960938 c 1
 673.940429688 39.2099609375 l 2
 751.26953125 -64.8798828125 764.91015625 -86.990234375 770.900390625 -95.349609375 c 0
 829.219726562 -150.8203125 907.01953125 -170.540039062 907.01953125 -170.540039062 c 2
 912.5703125 -171.099609375 911.150390625 -187.01953125 904.719726562 -187.01953125 c 0
 902.8203125 -186.870117188 624.870117188 -188.98046875 560.75 -187.01953125 c 0
 556.08984375 -187.01953125 556.08984375 -170.799804688 561.469726562 -170.200195312 c 0
 588.459960938 -167.690429688 648.580078125 -138.549804688 651.549804688 -113.900390625 c 0
 653.950195312 -94.0595703125 653.509765625 -82.919921875 572.370117188 30.4296875 c 2
 488.309570312 150.309570312 l 1
 316.48046875 -64.919921875 l 2
 285.669921875 -103.509765625 314.559570312 -157.549804688 386.23046875 -178.349609375 c 0
 395.110351562 -179.48046875 386.48046875 -187.549804688 386.099609375 -187.849609375 c 0
 385.780273438 -188.169921875 78.66015625 -187.849609375 78.66015625 -187.849609375 c 2
 71.23046875 -187.950195312 74.2197265625 -176.650390625 79.6298828125 -176.330078125 c 0
 164.08984375 -175.240234375 227.219726562 -96.580078125 260.330078125 -53.8603515625 c 0
 270.25 -41.0595703125 439.200195312 157.790039062 464.1796875 184.719726562 c 1
 332.530273438 372.459960938 l 2
 255.200195312 476.549804688 241.559570312 498.66015625 235.5703125 507.009765625 c 0
 177.25 562.490234375 99.4501953125 582.209960938 99.4501953125 582.209960938 c 2
 93.91015625 582.780273438 95.3203125 598.690429688 101.75 598.690429688 c 0
 102.940429688 598.58984375 211.959960938 599.379882812 309.219726562 599.5 c 0
EndSplineSet
EndChar
StartChar: Z
Encoding: 90 90 27
Width: 1000
Flags: H
LayerCount: 2
Fore
SplineSet
184.469726562 494.580078125 m 1
 184.469726562 494.5703125 l 1
 237.459960938 664.01953125 202.0703125 613.990234375 301.639648438 613.990234375 c 0
 320.91015625 613.990234375 724.450195312 613.540039062 724.450195312 613.540039062 c 2
 739.740234375 613.639648438 775.879882812 613.91015625 778.809570312 613.91015625 c 0
 790.26953125 613.91015625 799.690429688 614.009765625 807.309570312 613.98046875 c 2
 807.940429688 613.98046875 l 2
 846.259765625 613.809570312 837.75 610.099609375 809.620117188 572.360351562 c 2
 776.330078125 526.009765625 l 1
 296.08984375 -142.700195312 l 1
 549.299804688 -142.700195312 l 2
 723.4296875 -142.700195312 740.25 -116.099609375 763.419921875 -84.6796875 c 0
 815.629882812 -13.8701171875 843.389648438 32.58984375 859.5 58.66015625 c 1
 848.639648438 7.759765625 825.990234375 -94.41015625 812.5703125 -144.509765625 c 0
 797.809570312 -199.620117188 806.610351562 -194.73046875 713.009765625 -194.73046875 c 0
 619.990234375 -194.73046875 605.009765625 -192.669921875 537.009765625 -192.33984375 c 0
 530.009765625 -192.309570312 204.620117188 -194.73046875 185.639648438 -194.73046875 c 0
 110.549804688 -194.73046875 122.099609375 -199.059570312 162.5 -142.700195312 c 2
 652.540039062 540.969726562 l 2
 674.08984375 571.040039062 660.25 570.240234375 621.299804688 570.240234375 c 2
 362.290039062 570.240234375 l 2
 286.41015625 570.240234375 238.030273438 521.4296875 193.41015625 461.76953125 c 0
 187.849609375 454.33984375 177.41015625 440.799804688 173.309570312 440.0703125 c 0
 166.490234375 438.860351562 176.9296875 470.459960938 184.469726562 494.580078125 c 1
EndSplineSet
EndChar
StartChar: Odieresis
Encoding: 214 214 29
Width: 1000
Flags: H
LayerCount: 2
Fore
SplineSet
788.5703125 648.629882812 m 0
 821.9296875 648.629882812 849.75 620.8203125 849.75 587.450195312 c 0
 849.75 554.080078125 821.9296875 526.26953125 788.5703125 526.26953125 c 0
 755.190429688 526.26953125 727.389648438 554.080078125 727.389648438 587.450195312 c 0
 727.389648438 620.830078125 755.190429688 648.629882812 788.5703125 648.629882812 c 0
210.16015625 646.400390625 m 0
 243.530273438 646.400390625 271.33984375 618.599609375 271.33984375 585.23046875 c 0
 271.33984375 551.860351562 243.530273438 524.049804688 210.16015625 524.049804688 c 0
 176.790039062 524.049804688 148.990234375 551.860351562 148.990234375 585.23046875 c 0
 148.990234375 618.599609375 176.790039062 646.400390625 210.16015625 646.400390625 c 0
504.9296875 589.6796875 m 0
 700.700195312 589.6796875 874.209960938 442.860351562 874.209960938 223.73046875 c 0
 874.209960938 23.509765625 741.849609375 -164.469726562 494.91015625 -164.469726562 c 0
 299.150390625 -164.469726562 125.629882812 -17.650390625 125.629882812 201.48046875 c 0
 125.629882812 401.690429688 257.990234375 589.6796875 504.9296875 589.6796875 c 0
487.129882812 542.959960938 m 0
 319.169921875 542.959960938 232.41015625 430.620117188 232.41015625 257.099609375 c 0
 232.41015625 50.2099609375 325.83984375 -119.969726562 511.599609375 -119.969726562 c 0
 681.780273438 -119.969726562 767.4296875 -5.41015625 767.4296875 169.23046875 c 0
 767.4296875 375 672.889648438 542.959960938 487.129882812 542.959960938 c 0
EndSplineSet
EndChar
StartChar: Udieresis
Encoding: 220 220 30
Width: 1000
Flags: H
LayerCount: 2
Fore
SplineSet
362.599609375 680.799804688 m 1
 362.599609375 680.790039062 l 1
 396.530273438 680.790039062 424.799804688 652.51953125 424.799804688 618.58984375 c 0
 424.799804688 584.66015625 396.530273438 556.389648438 362.58984375 556.389648438 c 0
 328.66015625 556.389648438 300.389648438 584.66015625 300.389648438 618.58984375 c 0
 300.389648438 652.51953125 328.66015625 680.799804688 362.599609375 680.799804688 c 1
653.309570312 680.799804688 m 1
 653.3203125 680.790039062 l 1
 687.240234375 680.790039062 715.51953125 652.51953125 715.51953125 618.58984375 c 0
 715.51953125 584.66015625 687.240234375 556.389648438 653.309570312 556.389648438 c 0
 619.379882812 556.389648438 591.110351562 584.66015625 591.110351562 618.58984375 c 0
 591.110351562 652.51953125 619.379882812 680.799804688 653.309570312 680.799804688 c 1
126.459960938 514.580078125 m 1
 126.469726562 514.5703125 l 2
 128.83984375 514.559570312 131.919921875 514.5 135.919921875 514.5 c 0
 143.129882812 514.5 189.98046875 513.099609375 246.66015625 513.099609375 c 0
 303.360351562 513.099609375 334.25 514.5 341.459960938 514.5 c 0
 345.450195312 514.51953125 348.530273438 514.559570312 350.91015625 514.580078125 c 0
 358.01953125 514.610351562 358.76953125 514.379882812 358.76953125 512.1796875 c 0
 358.76953125 508.120117188 359.099609375 504.5 357.299804688 504.5 c 0
 308.219726562 504.669921875 291.16015625 449.360351562 291.16015625 421.259765625 c 0
 291.16015625 360.98046875 290.360351562 307.150390625 290.360351562 160.299804688 c 2
 290.360351562 92.3603515625 l 2
 290.360351562 -82.3701171875 386.469726562 -161 519.700195312 -161 c 0
 669.299804688 -161 737 -47.419921875 737 122.940429688 c 2
 737 182.940429688 l 2
 737 189.030273438 736.889648438 194.669921875 736.889648438 200.290039062 c 0
 736.673828125 231.625 736.168945312 261.405273438 735.330078125 292.58984375 c 1
 735.48046875 292.759765625 l 1
 734.280273438 332.58984375 732.490234375 355.41015625 730.6796875 388.540039062 c 0
 728.23046875 433.099609375 707.33984375 504.690429688 658.259765625 504.509765625 c 0
 656.459960938 504.509765625 656.790039062 508.129882812 656.790039062 512.190429688 c 0
 656.790039062 514.379882812 657.530273438 514.620117188 664.650390625 514.580078125 c 1
 664.650390625 514.5703125 l 2
 667.01953125 514.559570312 670.099609375 514.5 674.099609375 514.5 c 0
 681.309570312 514.5 720.83984375 513.099609375 777.530273438 513.099609375 c 0
 834.219726562 513.099609375 862.860351562 514.5 870.059570312 514.5 c 0
 874.059570312 514.51953125 877.139648438 514.5703125 879.509765625 514.5703125 c 0
 886.629882812 514.599609375 887.379882812 514.400390625 887.379882812 512.200195312 c 0
 887.379882812 508.129882812 887.709960938 504.5 885.91015625 504.5 c 0
 861.370117188 504.580078125 838.790039062 493.549804688 822.33984375 478.98046875 c 0
 792.0703125 452.169921875 791.240234375 368.780273438 790.98046875 354.379882812 c 2
 790.98046875 354.370117188 l 2
 790.98046875 258.389648438 790.440429688 258.4296875 786.870117188 72.7001953125 c 0
 783.599609375 -96.6298828125 657.23046875 -215.599609375 496.700195312 -215.599609375 c 0
 301.23046875 -215.599609375 202.950195312 -105.309570312 202.950195312 61.76953125 c 2
 202.950195312 160.370117188 l 2
 202.950195312 307.23046875 202.150390625 375.219726562 202.150390625 435.490234375 c 0
 202.150390625 463.58984375 169.08984375 504.690429688 120.009765625 504.509765625 c 0
 118.209960938 504.509765625 118.540039062 508.139648438 118.540039062 512.200195312 c 0
 118.540039062 514.400390625 119.280273438 514.620117188 126.400390625 514.580078125 c 2
 126.459960938 514.580078125 l 1
EndSplineSet
EndChar
